# xmcd CD database file
#
# Track frame offsets:
#	150
#	13961
#	26222
#	40578
#	64413
#	90432
#	101519
#	113755
#	128636
#
# Disc length: 1921 seconds
#
# Revision: 0
# Processed by: cddbd v1.5.2PL0 Copyright (c) Steve Scherf et al.
# Submitted via: CDex 1.70beta2
#
DISCID=6f077f09
DTITLE=Lionel Hampton - Flying Home CD7
DYEAR=2008
DGENRE=Jazz
TTITLE0=1 After You’ve Gone (Creamer/Layton)
TTITLE1=2 Boogie Woogie Santa Claus (Rene)
TTITLE2=3 Doug-Rey-Mi (Hampton)
TTITLE3=4 Satin Doll (Ellington/Strayhorn/Mercer)
TTITLE4=5 Screamin’ Boogie(Hampton)
TTITLE5=6 Soft Winds (Goodman)
TTITLE6=7 Speak Low (Weill/Nash)
TTITLE7=8 How Long Has This Been Going On?   (G. Gershwin/I. Gershwin)
TTITLE8=9 I Wish You Love (Trent/Beach)
EXTD=YEAR: 2008
EXTT0=
EXTT1=
EXTT2=
EXTT3=
EXTT4=
EXTT5=
EXTT6=
EXTT7=
EXTT8=
PLAYORDER=
